/* XPM */
static char *dummy[]={
"64 64 298 2",
"Qt c None",
"cJ c None",
".p c None",
".# c None",
".i c #132e3f",
"cL c #172c3c",
".f c #162a3e",
"cI c #223f50",
".t c #243d5b",
"cG c #213c55",
".a c #214153",
".u c #2c405d",
"cE c #1f3c55",
"cF c #1f3d4e",
".b c #204354",
".q c #1f3c55",
".g c #1f3b53",
"cK c #1f3b53",
".j c #28435a",
"cN c #28445b",
"cM c #29445a",
".w c #2a445a",
"cD c #2a445a",
".c c #2a455b",
".x c #2a445a",
".d c #2a445a",
".h c #2a445a",
".e c #2a445a",
".k c #2a455b",
"cH c #2b455b",
".r c #2b465d",
".l c #2f4b63",
".v c #2f4c64",
".m c #33516b",
".s c #33526c",
".n c #34546f",
".o c #355570",
"a. c #365670",
"#S c #365671",
"#2 c #385872",
"cj c #395973",
"ci c #3a5a74",
"cd c #3b5a74",
"cx c #3c5b75",
"b0 c #3d5b75",
"#k c #3d5c76",
"#r c #3e5d76",
"ar c #414042",
"aR c #434244",
".V c #44627b",
".y c #45627b",
".0 c #478cbf",
"#I c #488cbf",
"bC c #488dbf",
"bY c #498dc0",
"bu c #4a8ec0",
"as c #4b4a4c",
".C c #4b6880",
"#C c #4b8fc0",
"#D c #4b8fc1",
"#P c #4c8fc1",
"#M c #4d6981",
"ab c #4e91c2",
"#c c #4f91c2",
"bO c #5091c2",
"a7 c #5092c2",
".6 c #5192c2",
".1 c #5192c3",
"#q c #526d84",
"#l c #526e85",
"#5 c #536e85",
"cy c #547086",
"ax c #5494c4",
".A c #567187",
".B c #567188",
"cq c #5696c4",
"## c #577288",
"az c #585759",
".8 c #5896c5",
"aj c #5897c5",
"aY c #59585a",
"#4 c #5997c5",
"bw c #5998c5",
".S c #5c768c",
".T c #5d768c",
".Z c #5d9ac7",
"#V c #5e9ac7",
"aJ c #5e9bc7",
"av c #5f9bc7",
".K c #607a8f",
"bg c #609cc8",
"#i c #617a8f",
"#b c #619cc8",
"#R c #629dc8",
"a8 c #639dc9",
"aq c #646365",
"#u c #659fc9",
"aQ c #686769",
"bp c #6aa2cb",
"a3 c #6ba2cb",
"cr c #6c8397",
"#. c #6c8497",
".Q c #6ca3cc",
"aZ c #6d6c6d",
"cc c #6d8498",
"cz c #6d8598",
"#Q c #6da3cc",
"b9 c #6e8699",
"#e c #6ea5cd",
"#d c #6f8699",
"aU c #6fa5cd",
"au c #70a6cd",
"cp c #71a6ce",
"bN c #72a7ce",
"bm c #73a7ce",
"aD c #73a8ce",
"bB c #75a9cf",
"ck c #768c9e",
"af c #76a9cf",
"#G c #778d9f",
".z c #788ea0",
"b7 c #78abd0",
"b3 c #798fa0",
"#L c #79abd0",
"b1 c #7a8fa1",
"cg c #7aacd1",
"ca c #7bacd1",
"#f c #7badd1",
"cA c #7c91a2",
"#j c #7cadd1",
"#m c #7d92a3",
"#a c #7e92a4",
"#W c #8497a8",
"bV c #8498a8",
"#1 c #84b2d4",
"bM c #8598a8",
"#h c #85b3d4",
"aF c #868587",
"aX c #868687",
"cB c #8699a9",
"a2 c #878687",
".7 c #889bab",
"bf c #88b4d5",
"#8 c #899bab",
"cC c #899cab",
"#n c #89b6d6",
"aT c #8ab6d6",
"aL c #8c8b8c",
"#9 c #8cb7d7",
"#0 c #8ea0af",
"#X c #8fb9d8",
"a6 c #90bad8",
"b8 c #92a3b2",
"b6 c #92a4b2",
"#g c #93bbd9",
"#v c #95a6b4",
"ce c #96a7b4",
"b5 c #97a7b5",
"bH c #97bedb",
"b4 c #98a8b6",
".J c #99a9b7",
".D c #99aab7",
"be c #99c0dc",
"cw c #9aaab8",
"#x c #9ac0dc",
"cs c #9babb8",
"aH c #9cc1dc",
".9 c #9dc2dd",
"co c #9ec3dd",
"an c #9fc3de",
".P c #a0c4de",
"a9 c #a1c4de",
"#A c #a3b2be",
".R c #a3c5df",
"#E c #a3c6df",
"#F c #a4b3bf",
"#w c #a4c6df",
"ac c #a5c7e0",
"aa c #a7c7e0",
"bo c #a7c8e0",
"#Y c #a8b6c1",
"ai c #a8c8e0",
".Y c #a8c8e1",
"ag c #a8c9e1",
"aw c #a9a9aa",
"bA c #a9c9e1",
"at c #aaa9aa",
"bs c #abcae2",
"bd c #abcbe2",
".H c #acbac4",
".I c #adbac5",
"#o c #afbbc6",
"aB c #b3d0e5",
"#s c #b5c0ca",
"bt c #b5d1e5",
"bP c #b6d1e5",
"#J c #b8d3e6",
"cn c #b9d3e7",
"b2 c #bad4e7",
"bz c #bbd5e7",
"bD c #bcd5e8",
"#H c #bdd5e8",
"bc c #bdd6e8",
".U c #bec9d1",
"aM c #bed6e8",
".L c #bfc9d1",
"bL c #c0cad2",
"bF c #c1cbd3",
"#p c #c2ccd4",
"aA c #c3c3c4",
".3 c #c3ccd4",
".4 c #c3cdd5",
"ae c #c3d9ea",
"aC c #c4c3c4",
"cl c #c4cdd5",
"bv c #c5dbeb",
"ao c #c6dbeb",
"c# c #c6dceb",
"bQ c #c8ddec",
"#T c #c9d2d9",
"bj c #c9ddec",
"a0 c #cac9ca",
"ct c #cad2d9",
"#7 c #cbdeed",
"a1 c #ccdfed",
"bb c #cfe1ee",
"aE c #d0d0d1",
"aI c #d1d1d1",
"bq c #d1e2ef",
".O c #d2e3ef",
"#3 c #d3dae0",
"bR c #d3e4f0",
"aG c #d4e4f0",
"#O c #d5e4f0",
"aS c #d6d5d6",
".E c #d6dde2",
"bX c #d7e6f1",
"aK c #d8d7d8",
"aN c #d8d8d8",
"a4 c #d8e7f1",
"#B c #dae0e5",
"bJ c #dae8f2",
"bk c #dbe8f2",
"ap c #dcdbdc",
"bi c #ddeaf3",
"bn c #deeaf3",
"bS c #deebf4",
"#t c #dfebf4",
"ba c #e0ecf4",
"cb c #e1e6ea",
"c. c #e2e7ea",
"aO c #e2edf5",
"#Z c #e3edf5",
"ak c #e4eef6",
"bG c #e5eef6",
"bK c #e5eff6",
"bE c #e6eaee",
"ad c #e6eff6",
"by c #e7ebee",
"cv c #eaedf0",
"cu c #eaeef0",
"bI c #eaf2f8",
"bT c #ecf3f8",
"bZ c #edf0f2",
"bl c #edf4f9",
"aW c #eeeeee",
"bW c #eef0f3",
"ch c #eef1f3",
"bU c #eef4f9",
"cf c #eff1f3",
".W c #eff2f4",
".X c #eff5f9",
"a# c #f0f3f5",
".5 c #f1f6fa",
".2 c #f1f7fa",
"b# c #f2f7fa",
"al c #f3f2f3",
"#K c #f3f7fb",
"#N c #f4f5f7",
"#y c #f5f9fb",
"#U c #f5f9fc",
"bx c #f6f8f9",
"a5 c #f6f9fc",
"#6 c #f7f8f9",
"ay c #f8f8f8",
"ah c #f9fafb",
"#z c #fafbfb",
"b. c #fafbfc",
"br c #fafcfd",
"bh c #fbfcfc",
"aP c #fcfcfc",
"cm c #fcfcfd",
".M c #fcfdfd",
"aV c #fcfdfe",
".N c #fdfefe",
".F c #fefefe",
"am c #fefeff",
".G c #ffffff",
"QtQtQt.#.a.b.c.d.e.e.e.e.e.e.e.e.e.e.e.e.e.e.e.e.e.e.e.e.e.e.e.e.e.e.e.e.e.e.e.e.e.e.e.e.e.e.e.e.e.e.e.e.e.e.e.e.d.c.b.a.#QtQtQt",
"QtQt.f.g.h.e.e.e.e.e.e.e.e.e.e.e.e.e.e.e.e.e.e.e.e.e.e.e.e.e.e.e.e.e.e.e.e.e.e.e.e.e.e.e.e.e.e.e.e.e.e.e.e.e.e.e.e.e.e.h.g.fQtQt",
"Qt.i.j.e.k.l.m.n.o.o.o.o.o.o.o.o.o.o.o.o.o.o.o.o.o.o.o.o.o.o.o.o.o.o.o.o.o.o.o.o.o.o.o.o.o.o.o.o.o.o.o.o.o.o.o.o.n.m.l.k.e.j.iQt",
".p.q.e.r.s.o.o.o.o.o.o.o.o.o.o.o.o.o.o.o.o.o.o.o.o.o.o.o.o.o.o.o.o.o.o.o.o.o.o.o.o.o.o.o.o.o.o.o.o.o.o.o.o.o.o.o.o.o.o.s.r.e.q.p",
".t.h.k.s.o.o.o.o.o.o.o.o.o.o.o.o.o.o.o.o.o.o.o.o.o.o.o.o.o.o.o.o.o.o.o.o.o.o.o.o.o.o.o.o.o.o.o.o.o.o.o.o.o.o.o.o.o.o.o.o.s.k.h.t",
".u.e.v.o.o.o.o.o.o.o.o.o.o.o.o.o.o.o.o.o.o.o.o.o.o.o.o.o.o.o.o.o.o.o.o.o.o.o.o.o.o.o.o.o.o.o.o.o.o.o.o.o.o.o.o.o.o.o.o.o.o.v.e.u",
".w.e.m.o.o.o.o.o.o.o.o.o.o.o.o.o.o.o.o.o.o.o.o.o.o.o.o.o.o.o.o.o.o.o.o.o.o.o.o.o.o.o.o.o.o.o.o.o.o.o.o.o.o.o.o.o.o.o.o.o.o.m.e.w",
".x.e.n.o.o.o.o.o.o.o.o.o.o.o.o.o.o.o.o.o.o.o.o.o.o.o.o.o.o.o.o.o.o.o.o.o.o.o.o.o.o.o.o.o.o.o.o.o.o.o.o.o.o.o.o.o.o.o.o.o.o.n.e.x",
".e.e.o.o.o.o.o.o.o.o.o.o.o.o.o.o.o.o.o.o.o.o.o.o.o.y.z.A.o.o.o.o.o.o.o.o.B.z.y.o.o.o.o.o.o.o.o.o.o.o.o.o.o.o.o.o.o.o.o.o.o.o.e.e",
".e.e.o.o.o.o.o.o.o.o.o.o.o.o.o.o.o.o.o.o.o.o.C.D.E.F.G.G.H.o.o.o.o.o.o.I.G.G.F.E.J.C.o.o.o.o.o.o.o.o.o.o.o.o.o.o.o.o.o.o.o.o.e.e",
".e.e.o.o.o.o.o.o.o.o.o.o.o.o.o.o.o.o.o.o.K.L.M.N.O.P.Q.R.F.S.o.o.o.o.T.F.R.Q.P.O.N.M.U.K.o.o.o.o.o.o.o.o.o.o.o.o.o.o.o.o.o.o.e.e",
".e.e.o.o.o.o.o.o.o.o.o.o.o.o.o.o.o.o.o.V.W.X.Y.Z.0.0.0.1.2.3.o.o.o.o.4.5.6.0.0.0.Z.Y.X.W.V.o.o.o.o.o.o.o.o.o.o.o.o.o.o.o.o.o.e.e",
".e.e.o.o.o.o.o.o.o.o.o.o.o.o.o.o.o.o.o.7.G.8.0.0.0.0.0.0.9.G#.#####..G.9.0.0.0.0.0.0.8.G.7.o.o.o.o.o.o.o.o.o.o.o.o.o.o.o.o.o.e.e",
".e.e.o.o.o.o.o.o.o.o.o.o.o.o.o.o.o.o.o#a.G#b.0.0.0.0.0.0#c.X.G.G.G.G.X#c.0.0.0.0.0.0#b.G#a.o.o.o.o.o.o.o.o.o.o.o.o.o.o.o.o.o.e.e",
".e.e.o.o.o.o.o.o.o.o.o.o.o.o.o.o.o.o.o#d.G#e.0.0.0.0.0.0.0#f#g#h#h#g#f.0.0.0.0.0.0.0#e.G#d.o.o.o.o.o.o.o.o.o.o.o.o.o.o.o.o.o.e.e",
".e.e.o.o.o.o.o.o.o.o.o.o.o.o.o.o.o.o.o#i.G#j.0.0.0.0.0.0.0.0.0.0.0.0.0.0.0.0.0.0.0.0#j.G#i.o.o.o.o.o.o.o.o.o.o.o.o.o.o.o.o.o.e.e",
".e.e.o.o.o.o.o.o.o.o.o.o#k#l.o.o.o.o.o#m.G#n.0.0.0.0.0.0.0.0.0.0.0.0.0.0.0.0.0.0.0.0#n.G#m.o.o.o.o.o#l#k.o.o.o.o.o.o.o.o.o.o.e.e",
".e.e.o.o.o.o.o.o.o.o.o#o.G.G#p#q.o#r#s.G#t#u.0.0.0.0.0.0.0.0.0.0.0.0.0.0.0.0.0.0.0.0#u#t.G#s#r.o#l#p.G.G#o.o.o.o.o.o.o.o.o.o.e.e",
".e.e.o.o.o.o.o.o.o.o#v.G#w#x#y#z#A#B.N.R#C.0.0.0.0.0.0.0.0.0.0.0.0.0.0.0.0.0.0.0.0.0.0#D#E.N#B#F#z#y#x#w.G#v.o.o.o.o.o.o.o.o.e.e",
".e.e.o.o.o.o.o.o.o#G.F#H#I.0.8#J.F#K#L.0.0.0.0.0.0.0.0.0.0.0.0.0.0.0.0.0.0.0.0.0.0.0.0.0.0#L#K.F#J.8.0#I#H.F#G.o.o.o.o.o.o.o.e.e",
".e.e.o.o.o.o.o.o#M#N#O#P.0.0.0.0#Q#R.0.0.0.0.0.0.0.0.0.0.0.0.0.0.0.0.0.0.0.0.0.0.0.0.0.0.0.0#R#Q.0.0.0.0#P#O#N#M.o.o.o.o.o.o.e.e",
".e.e.o.o.o.o.o#S#T#U#V.0.0.0.0.0.0.0.0.0.0.0.0.0.0.0.0.0.0.0.0.0.0.0.0.0.0.0.0.0.0.0.0.0.0.0.0.0.0.0.0.0.0#V#U#T#S.o.o.o.o.o.e.e",
".e.e.o.o.o.o.o#W.G#X.0.0.0.0.0.0.0.0.0.0.0.0.0.0.0.0.0.0.0.0.0.0.0.0.0.0.0.0.0.0.0.0.0.0.0.0.0.0.0.0.0.0.0.0#X.G#W.o.o.o.o.o.e.e",
".e.e.o.o.o.o.o#Y#Z.0.0.0.0.0.0.0.0.0.0.0.0.0.0.0.0.0.0.0.0.0.0.0.0.0.0.0.0.0.0.0.0.0.0.0.0.0.0.0.0.0.0.0.0.0.0#Z#Y.o.o.o.o.o.e.e",
".e.e.o.o.o.o.o#0.G#1.0.0.0.0.0.0.0.0.0.0.0.0.0.0.0.0.0.0.0.0.0.0.0.0.0.0.0.0.0.0.0.0.0.0.0.0.0.0.0.0.0.0.0.0#1.G#0.o.o.o.o.o.e.e",
".e.e.o.o.o.o.o#2#3.2#4.0.0.0.0.0.0.0.0.0.0.0.0.0.0.0.0.0.0.0.0.0.0.0.0.0.0.0.0.0.0.0.0.0.0.0.0.0.0.0.0.0.0#4.2#3#2.o.o.o.o.o.e.e",
".e.e.o.o.o.o.o.o#5#6#7#I.0.0.0.0.0.0.0.0.0.0.0.0.0.0.0.0.0.0.0.0.0.0.0.0.0.0.0.0.0.0.0.0.0.0.0.0.0.0.0.0#I#7#6#5.o.o.o.o.o.o.e.e",
".e.e.o.o.o.o.o.o.o#8.G#9.0.0.0.0.0.0.0.0.0.0.0.0.0.0.0.0.0.0.0.0.0.0.0.0.0.0.0.0.0.0.0.0.0.0.0.0.0.0.0.0#9.G#8.o.o.o.o.o.o.o.e.e",
".e.e.o.o.o.o.o.o.oa.a#aa.0.0.0.0.0.0abac#Oadaeaf.0.0.0.0.0.0.0.0.0.0.0.0.0.0.0.0afaead#Oacab.0.0.0.0.0.0ag#za..o.o.o.o.o.o.o.e.e",
".e.e.o.o.o.o.o.o.o.oahai.0.0.0.0.0ajak.G.Gal.Faman.0.0.0.0.0.0.0.0.0.0.0.0.0.0anam.Fal.G.Gakaj.0.0.0.0.0agah.o.o.o.o.o.o.o.o.e.e",
".e.e.o.o.o.o.o.o.o.oahag.0.0.0.0.0ao.Gapaqarasat.Nau.0.0.0.0.0avav.0.0.0.0.0au.Nawasaraqap.Gao.0.0.0.0.0agah.o.o.o.o.o.o.o.o.e.e",
".e.e.o.o.o.o.o.o.o.oahag.0.0.0.0ax.GayazararararaAaB.0.0.0.0af.N.Naf.0.0.0.0aBaCararararazay.Gax.0.0.0.0agah.o.o.o.o.o.o.o.o.e.e",
".e.e.o.o.o.o.o.o.o.oahag.0.0.0.0aD.GaEarararararaFaG.0.0.0.0aH.G.GaH.0.0.0.0aGaFarararararaI.GaD.0.0.0.0agah.o.o.o.o.o.o.o.o.e.e",
".e.e.o.o.o.o.o.o.o.oahag.0.0.0.0aJ.GaKarararararaLaM.0.0.0.0aH.G.GaH.0.0.0.0aMaLarararararaN.GaJ.0.0.0.0agah.o.o.o.o.o.o.o.o.e.e",
".e.e.o.o.o.o.o.o.o.oahag.0.0.0.0.0aOaPaQarararaRaSaT.0.0.0.0aH.G.GaH.0.0.0.0aTaSaRarararaQaPaO.0.0.0.0.0agah.o.o.o.o.o.o.o.o.e.e",
".e.e.o.o.o.o.o.o.o.oahag.0.0.0.0.0aUaVaWaXaYaZa0a1#I.0.0.0.0aH.G.GaH.0.0.0.0#Ia1a0aZaYa2aWaVaU.0.0.0.0.0agah.o.o.o.o.o.o.o.o.e.e",
".e.e.o.o.o.o.o.o.o.oahag.0.0.0.0.0.0a3a4.G.Ga5ag#P.0.0.0.0.0a6.G.Ga6.0.0.0.0.0#Paga5.G.Ga4a3.0.0.0.0.0.0agah.o.o.o.o.o.o.o.o.e.e",
".e.e.o.o.o.o.o.o.o.oahag.0.0.0.0.0.0.0.0a7a8.0.0.0.0.0.0.0.0#Pa9a9#P.0.0.0.0.0.0.0.0a8a7.0.0.0.0.0.0.0.0agah.o.o.o.o.o.o.o.o.e.e",
".e.e.o.o.o.o.o.o.o.oahag.0.0.0.0.0.0.0.0.0.0.0.0.0.0.0.0.0.0.0.0.0.0.0.0.0.0.0.0.0.0.0.0.0.0.0.0.0.0.0.0agah.o.o.o.o.o.o.o.o.e.e",
".e.e.o.o.o.o.o.o.o.oahag.0.0.0.0.0.0.0.0.0.0.0.0.0.0.0.0.0.0.0.0.0.0.0.0.0.0.0.0.0.0.0.0.0.0.0.0.0.0.0.0agah.o.o.o.o.o.o.o.o.e.e",
".e.e.o.o.o.o.o.o.o.ob..Gb#babbbcbdbebfbg.0.0.0.0.0.0.0.0.0.0.0.0.0.0.0.0.0.0.0.0.0.0.0.0bgbfbebdbcbbbab#.Gah.o.o.o.o.o.o.o.o.e.e",
".e.e.o.o.o.o.o.o.o.obhbibjbkbl.G.G.G.Gad.0.0.0.0.0.0.0bm#E#E#E#E#E#E#E#Ebm.0.0.0.0.0.0.0ad.G.G.G.Gblbkbjbnbh.o.o.o.o.o.o.o.o.e.e",
".e.e.o.o.o.o.o.o.o.obhbo.0.0.0.0#4bpbqbr.0.0.0.0.0.0.0aO.G.G.G.G.G.G.G.GaO.0.0.0.0.0.0.0brbqbp#4.0.0.0.0bobh.o.o.o.o.o.o.o.o.e.e",
".e.e.o.o.o.o.o.o.o.o#6bs.0.0.0.0.0.0bt.G#c.0.0.0.0.0buaVbvbwbwbwbwbwbwbvaVbu.0.0.0.0.0#c.Gbt.0.0.0.0.0.0bsbx.o.o.o.o.o.o.o.o.e.e",
".e.e.o.o.o.o.o.o.o.obybz.0.0.0.0.0.0bA.GbBbwbC.0.0.0#R.Gac.0.0.0.0.0.0ac.G#R.0.0.0bCbwbB.GbA.0.0.0.0.0.0bDbE.o.o.o.o.o.o.o.o.e.e",
".e.e.o.o.o.o.o.o.o.obFbG.0.0.0.0.0.0bH.G.G.G.G#UbIbJbJ.GaT.0.0.0.0.0.0aT.GbJbJbI#U.G.G.G.GbH.0.0.0.0.0.0bKbL.o.o.o.o.o.o.o.o.e.e",
".e.e.o.o.o.o.o.o.o.obM.GbN.0.0.0.0.0bO#9.PbsbPbQbRbSblbTaJ.0.0.0.0.0.0avbUblbSbRbQbPbs.P#9bO.0.0.0.0.0bN.GbV.o.o.o.o.o.o.o.o.e.e",
".e.e.o.o.o.o.o.o.o.o#kbWbXbY.0.0.0.0.0.0.0.0.0.0.0.0.0.0.0.0.0.0.0.0.0.0.0.0.0.0.0.0.0.0.0.0.0.0.0.0bYbXbZb0.o.o.o.o.o.o.o.o.e.e",
".e.e.o.o.o.o.o.o.o.o.ob1.Gb2bY.0.0.0.0.0.0.0.0.0.0.0.0.0.0.0.0.0.0.0.0.0.0.0.0.0.0.0.0.0.0.0.0.0.0bYb2.Gb3.o.o.o.o.o.o.o.o.o.e.e",
".e.e.o.o.o.o.o.o.o.o.o.ob4.Gbc#C.0.0.0.0.0.0.0.0.0.0.0.0.0.0.0.0.0.0.0.0.0.0.0.0.0.0.0.0.0.0.0.0#CaM.Gb5.o.o.o.o.o.o.o.o.o.o.e.e",
".e.e.o.o.o.o.o.o.o.o.o.o.ob6.GaOb7.0.0.0.0.0.0.0.0.0.0.0.0.0.0.0.0.0.0.0.0.0.0.0.0.0.0.0.0.0.0b7aO.Gb8.o.o.o.o.o.o.o.o.o.o.o.e.e",
".e.e.o.o.o.o.o.o.o.o.o.o.o.ob9c..Gc#cabY.0.0.0.0.0.0.0.0.0.0.0.0.0.0.0.0.0.0.0.0.0.0.0.0bY#fc#.Gcbcc.o.o.o.o.o.o.o.o.o.o.o.o.e.e",
".e.e.o.o.o.o.o.o.o.o.o.o.o.o.ocdcecf.GbIbAcg#c.0.0.0.0.0.0.0.0.0.0.0.0.0.0.0.0.0.0#ccgbAbI.Gch#vci.o.o.o.o.o.o.o.o.o.o.o.o.o.e.e",
".e.e.o.o.o.o.o.o.o.o.o.o.o.o.o.o.ocjckclcm.GaVbJcncobfcp#Rbwcq.0.0cqbw#RcpbfcocnbJaV.Gbh.4ckcj.o.o.o.o.o.o.o.o.o.o.o.o.o.o.o.e.e",
".e.e.o.o.o.o.o.o.o.o.o.o.o.o.o.o.o.o.o.o#kcrcsctcu.G.G.G.G.G.G.G.G.G.G.G.G.G.Gcv#Tcwcr#k.o.o.o.o.o.o.o.o.o.o.o.o.o.o.o.o.o.o.e.e",
".e.e.o.o.o.o.o.o.o.o.o.o.o.o.o.o.o.o.o.o.o.o.o.o.ocxcyczcAcBcCcwcwcCcBcAczcycx.o.o.o.o.o.o.o.o.o.o.o.o.o.o.o.o.o.o.o.o.o.o.o.e.e",
".x.e.n.o.o.o.o.o.o.o.o.o.o.o.o.o.o.o.o.o.o.o.o.o.o.o.o.o.o.o.o.o.o.o.o.o.o.o.o.o.o.o.o.o.o.o.o.o.o.o.o.o.o.o.o.o.o.o.o.o.o.n.e.x",
"cD.e.m.o.o.o.o.o.o.o.o.o.o.o.o.o.o.o.o.o.o.o.o.o.o.o.o.o.o.o.o.o.o.o.o.o.o.o.o.o.o.o.o.o.o.o.o.o.o.o.o.o.o.o.o.o.o.o.o.o.o.m.e.w",
"cE.e.v.o.o.o.o.o.o.o.o.o.o.o.o.o.o.o.o.o.o.o.o.o.o.o.o.o.o.o.o.o.o.o.o.o.o.o.o.o.o.o.o.o.o.o.o.o.o.o.o.o.o.o.o.o.o.o.o.o.o.v.ecF",
"cG.hcH.s.o.o.o.o.o.o.o.o.o.o.o.o.o.o.o.o.o.o.o.o.o.o.o.o.o.o.o.o.o.o.o.o.o.o.o.o.o.o.o.o.o.o.o.o.o.o.o.o.o.o.o.o.o.o.o.o.scH.hcI",
"cJcK.e.r.s.o.o.o.o.o.o.o.o.o.o.o.o.o.o.o.o.o.o.o.o.o.o.o.o.o.o.o.o.o.o.o.o.o.o.o.o.o.o.o.o.o.o.o.o.o.o.o.o.o.o.o.o.o.o.s.r.ecK.#",
"QtcLcM.e.k.l.m.n.o.o.o.o.o.o.o.o.o.o.o.o.o.o.o.o.o.o.o.o.o.o.o.o.o.o.o.o.o.o.o.o.o.o.o.o.o.o.o.o.o.o.o.o.o.o.o.o.n.m.l.k.ecNcLQt",
"QtQt.f.g.h.e.e.e.e.e.e.e.e.e.e.e.e.e.e.e.e.e.e.e.e.e.e.e.e.e.e.e.e.e.e.e.e.e.e.e.e.e.e.e.e.e.e.e.e.e.e.e.e.e.e.e.e.e.e.h.g.fQtQt",
"QtQtQt.#.a.b.c.d.e.e.e.e.e.e.e.e.e.e.e.e.e.e.e.e.e.e.e.e.e.e.e.e.e.e.e.e.e.e.e.e.e.e.e.e.e.e.e.e.e.e.e.e.e.e.e.e.d.c.b.a.#QtQtQt"};
